Patient4_TMGait_0pt5_02_left_07_EMG.mot
version=1
nRows=13
nColumns=33
inDegrees=no
endheader
time	1LAddLong	2LGlutMax	3LGlutMed	4LIliopsoas	5LSemiMemb	6LBicFemLong	7LRecFem	8LVastMed	9LVastLat	10LGasMed	11LTibAnt	12lTibPost	13LPeroneusLong	14LSol	15LExtDigLong	16LFlexDigLong	17RAddLong	18RGlutMax	19RGlutMed	20RIliopsoas	21RSemiMemb	22RBicFemLong	23RRecFem	24RVastMed	25RVastLat	26RGasMed	27RTibAnt	28RTibPost	29RPeroneusLong	30RSol	31RExtDigLong	32RFlexDigLong
9.873	0.016479	0.041656	-0.12116	0.013733	-0.015259	0.006714	0.010986	-0.000458	0.068817	-0.044861	0.017548	-0.005341	0.005646	-0.043182	-0.011292	0.016785	-0.028076	0.21973	-0.069275	0.062256	-0.06012	-0.014954	-0.056763	0.075684	-0.024719	-0.066528	-0.20401	0.10086	0.11505	0.12299	-0.002747	-0.009155
9.874	0.010834	0.055389	-0.121	0.041046	-0.019989	0.013428	0.014038	-0.003204	0.063629	-0.028839	0.015717	-0.003052	0.02243	-0.073547	-0.002594	0.014343	-0.052948	0.16052	0.2536	0.079346	-0.069275	-0.014191	-0.003357	0.13947	0.028229	-0.16174	-0.15823	-0.032654	0.28122	-0.21255	-0.002899	-0.002594
9.875	0.006866	0.014038	-0.034637	0.005188	0.045013	-0.020752	0.014038	-0.009155	0.053406	-0.023804	0.009155	0.000763	0.024414	-0.045776	0.003662	0.016632	-0.018311	0.15457	0.49545	0.092316	0.056	0.011597	0.072479	-0.040894	-0.079346	-0.095673	0.060883	-0.28763	0.33478	-0.15793	-0.001831	-0.000458
9.876	0.005341	0.030212	0.045471	0.006409	0.057983	-0.014648	0.006866	-0.001221	0.052185	-0.031891	0.013428	-0.001526	0.034027	-0.036163	-0.007019	0.01709	0.050507	0.22629	0.25726	0.080719	0.18143	-0.072174	0.19134	-0.13245	-0.19211	-0.00885	0.47897	-0.059662	0.18677	0.045471	0.005951	-0.002594
9.877	0.005188	0.046082	0.039215	-0.019684	0.032959	0.008087	0.018005	0.007629	0.047455	-0.024567	0.010529	0.003662	0.036774	-0.002899	0.006409	0.005341	0.058746	0.19898	-0.12451	-0.023651	0.16205	-0.012817	0.10849	-0.12299	-0.14175	0.010376	0.62012	0.10742	-0.036163	0.23743	-0.001831	-0.011597
9.878	0.008698	0.019073	0.005188	-0.00946	0.039368	0.000763	0.011139	0.002747	0.04715	-0.030823	0.015411	-0.00412	0.008087	-0.013428	-0.002441	0.002594	-0.003204	0.09964	-0.2446	-0.09903	0.045319	0.11551	0.076904	0.001984	-0.011444	0.036774	0.52399	0.046082	-0.13657	0.1033	-0.000458	-0.008698
9.879	0.011139	0.001221	-0.017548	0.005798	0.019226	0.022736	0.011292	-0.001678	0.051422	-0.051117	0.014496	0.000916	-0.007782	-0.018311	-0.005798	0.017395	-0.068512	0.15533	-0.23697	-0.097656	0.040131	0.17044	0.005798	0.042267	-0.012054	0.064545	0.38467	0.081024	-0.18066	-0.082397	-0.001373	-0.009766
9.88	0.008698	0.011597	-0.022125	-0.018158	-0.009308	0.042114	0.010376	-0.00351	0.046082	-0.042725	0.016174	-0.001984	0.004578	-0.036163	-0.002441	0.005188	-0.082092	0.17716	-0.27344	-0.053711	-0.16357	0.18036	-0.070496	0.06958	-0.05722	0.055542	-0.042419	0.03067	-0.16327	-0.23636	-0.006256	-0.01709
9.881	0.00824	0.015564	-0.039215	0.007172	-0.02243	0.050201	0.016022	-0.006714	0.041046	-0.051117	0.020599	-0.000763	-0.001984	-0.030365	-0.003815	0.012512	-0.068665	0.1268	0.08316	0.051727	-0.046692	0.078583	-0.28153	0.078583	0.046387	0.030212	-0.23941	0.003357	-0.025787	-0.21103	-0.003052	-0.00412
9.882	0.011902	0.011902	-0.062256	0.011597	-0.026245	0.008698	0.010834	-0.00473	0.039825	-0.051727	0.009003	0.003815	0.016022	-0.027313	0.002441	0.012207	-0.009155	0.15625	0.26199	0.12161	-0.015869	-0.033264	-0.27557	0.13382	0.13886	0.049286	-0.17319	0.012054	0.13046	-0.16708	-0.002441	-0.008545
9.883	0.00885	-0.006256	-0.11612	0.019073	0.000916	-0.008392	0.005646	0.009308	0.048218	-0.054016	0.014496	-0.001831	0.046539	-0.038147	0.007019	0.001984	0.024414	0.16235	0.16571	0.16892	-0.026855	-0.048981	-0.090637	0.14633	0.15152	0.070801	0.050201	0.023499	0.14954	-0.090637	-0.001526	-0.014343
9.884	-0.000763	0.006409	-0.12695	0.015106	0.001068	-0.008392	0.007782	-0.000458	0.042419	-0.06073	0.007477	0.003967	0.04837	-0.051727	0.003967	0.005035	0.026398	0.12375	-0.060883	0.079803	0.001984	-0.065155	-0.009308	0.11734	0.11185	0.061493	0.1561	0.00351	0.14862	-0.10605	0.000305	-0.006866
9.885	0.007477	-0.02121	-0.054169	-0.001221	0.007019	0.013123	0.010834	-0.001068	0.037994	-0.055389	0.008698	-0.001984	0.0383	-0.053558	-0.007629	-0.003204	0.016632	0.16068	0.34058	-0.022888	0.089264	-0.058594	-0.006256	0.047455	0.057526	-0.002747	-0.059052	-0.049286	0.12619	-0.088196	-0.001526	-0.003967
